<?xml version="1.0" encoding="UTF-8" ?>
<!DOCTYPE svg PUBLIC "-//W3C//DTD SVG 1.1//EN" "http://www.w3.org/Graphics/SVG/1.1/DTD/svg11.dtd">
<svg width="154px" height="64px" viewBox="0 0 154 64" version="1.1" xmlns="http://www.w3.org/2000/svg">
<path fill="#0696DE" d=" M 0.00 0.00 L 48.14 0.00 C 48.59 3.62 48.95 7.25 49.31 10.88 C 35.04 11.28 20.75 10.67 6.48 11.18 C 4.36 17.83 3.11 24.82 0.00 31.11 L 0.00 0.00 Z" />
<path fill="#e34c26" d=" M 48.14 0.00 L 105.71 0.00 C 105.10 3.65 104.94 7.36 104.60 11.04 C 103.34 25.02 102.08 39.01 100.86 53.00 C 100.71 54.57 100.53 56.13 100.35 57.70 C 93.04 59.80 85.67 61.75 78.40 64.00 L 74.94 64.00 C 67.76 61.56 60.38 59.85 53.14 57.64 C 53.10 56.09 53.07 54.54 53.03 53.00 C 52.03 38.94 50.66 24.91 49.31 10.88 C 48.95 7.25 48.59 3.62 48.14 0.00 Z" />
<path fill="#0696DE" d=" M 105.71 0.00 L 154.00 0.00 L 154.00 31.31 C 150.88 24.96 149.73 17.86 147.49 11.18 C 133.20 10.76 118.89 11.08 104.60 11.04 C 104.94 7.36 105.10 3.65 105.71 0.00 Z" />
<path fill="#f06529" d=" M 76.43 4.47 C 84.22 4.12 92.03 4.37 99.83 4.27 C 98.78 20.82 96.83 37.30 95.64 53.83 C 89.25 55.76 82.88 58.09 76.24 58.94 C 76.25 56.56 76.28 54.17 76.35 51.79 C 76.64 51.77 77.22 51.72 77.51 51.70 C 82.15 50.52 86.73 49.11 91.35 47.87 C 91.95 40.58 92.65 33.30 93.29 26.00 C 87.82 26.00 82.36 26.00 76.89 26.00 L 76.21 26.00 C 76.23 23.67 76.23 21.33 76.24 19.00 L 76.94 19.00 C 82.60 19.00 88.26 19.00 93.92 19.00 C 94.12 16.59 94.34 14.17 94.55 11.75 C 88.59 11.74 82.63 11.74 76.67 11.76 C 76.27 9.35 76.25 6.90 76.43 4.47 Z" />
<path fill="#d9d9d9" d=" M 6.48 11.18 C 20.75 10.67 35.04 11.28 49.31 10.88 C 50.66 24.91 52.03 38.94 53.03 53.00 C 37.51 52.88 21.98 53.24 6.47 52.83 C 4.40 45.81 2.62 38.69 0.00 31.86 L 0.00 31.11 C 3.11 24.82 4.36 17.83 6.48 11.18 Z" />
<path fill="#d9d9d9" d=" M 104.60 11.04 C 118.89 11.08 133.20 10.76 147.49 11.18 C 149.73 17.86 150.88 24.96 154.00 31.31 L 154.00 31.74 C 151.34 38.61 149.70 45.82 147.49 52.84 C 131.95 53.22 116.40 52.88 100.86 53.00 C 102.08 39.01 103.34 25.02 104.60 11.04 Z" />
<path fill="#ebebeb" d=" M 58.93 11.76 C 64.84 11.75 70.75 11.74 76.67 11.76 C 76.79 14.17 76.87 16.58 76.94 19.00 L 76.24 19.00 C 73.13 19.00 70.03 19.00 66.93 19.01 C 67.12 21.33 67.32 23.64 67.51 25.96 C 70.41 25.99 73.31 26.01 76.21 26.00 L 76.89 26.00 C 76.84 28.43 76.80 30.85 76.76 33.27 C 71.45 33.23 66.13 33.26 60.82 33.25 C 60.20 26.08 59.48 18.93 58.93 11.76 Z" />
<path fill="#ffffff" d=" M 76.67 11.76 C 82.63 11.74 88.59 11.74 94.55 11.75 C 94.34 14.17 94.12 16.59 93.92 19.00 C 88.26 19.00 82.60 19.00 76.94 19.00 C 76.87 16.58 76.79 14.17 76.67 11.76 Z" />
<path fill="#e34c26" d=" M 66.93 19.01 C 70.03 19.00 73.13 19.00 76.24 19.00 C 76.23 21.33 76.23 23.67 76.21 26.00 C 73.31 26.01 70.41 25.99 67.51 25.96 C 67.32 23.64 67.12 21.33 66.93 19.01 Z" />
<path fill="#999999" d=" M 19.33 27.15 C 21.74 24.89 25.11 23.90 27.96 22.27 C 30.58 23.57 33.28 24.74 35.75 26.30 C 37.27 26.87 36.54 28.65 36.64 29.83 C 33.76 28.40 30.89 26.93 28.00 25.51 C 25.11 26.92 22.25 28.39 19.37 29.83 C 19.36 29.16 19.34 27.82 19.33 27.15 Z" />
<path fill="#999999" d=" M 120.94 25.24 C 125.14 25.25 129.34 25.11 133.54 25.44 C 132.66 28.98 132.28 32.64 131.22 36.13 C 128.64 37.68 125.11 39.43 122.08 37.97 C 120.81 37.48 119.60 36.88 118.37 36.31 C 118.61 35.44 119.08 33.69 119.32 32.82 C 121.09 33.45 122.56 34.61 124.14 35.59 C 125.73 35.90 127.25 35.08 128.79 34.82 C 128.94 34.11 129.23 32.71 129.38 32.00 C 125.98 32.04 122.58 32.00 119.18 31.85 C 119.49 30.98 119.80 30.11 120.11 29.24 C 123.49 28.78 127.73 30.44 130.52 28.12 C 127.00 27.96 123.48 28.02 119.97 27.89 C 120.29 27.00 120.61 26.12 120.94 25.24 Z" />
<path fill="#ffffff" d=" M 76.89 26.00 C 82.36 26.00 87.82 26.00 93.29 26.00 C 92.65 33.30 91.95 40.58 91.35 47.87 C 86.73 49.11 82.15 50.52 77.51 51.70 C 77.11 49.20 76.84 46.68 76.68 44.15 C 79.30 43.66 81.85 42.89 84.42 42.19 C 84.72 39.29 85.02 36.38 85.36 33.48 C 82.50 33.24 79.63 33.24 76.76 33.27 C 76.80 30.85 76.84 28.43 76.89 26.00 Z" />
<path fill="#9d9d9d" d=" M 19.28 31.48 C 22.21 30.08 25.13 28.63 28.07 27.23 C 30.95 28.69 33.83 30.12 36.75 31.50 C 36.70 32.62 36.65 33.73 36.60 34.85 C 33.75 33.41 30.89 31.97 28.03 30.56 C 25.13 31.96 22.25 33.40 19.39 34.85 C 19.35 33.73 19.31 32.61 19.28 31.48 Z" />
<path fill="#0696DE" d=" M 0.00 31.86 C 2.62 38.69 4.40 45.81 6.47 52.83 C 21.98 53.24 37.51 52.88 53.03 53.00 C 53.07 54.54 53.10 56.09 53.14 57.64 C 60.38 59.85 67.76 61.56 74.94 64.00 L 0.00 64.00 L 0.00 31.86 Z" />
<path fill="#0696DE" d=" M 147.49 52.84 C 149.70 45.82 151.34 38.61 154.00 31.74 L 154.00 64.00 L 78.40 64.00 C 85.67 61.75 93.04 59.80 100.35 57.70 C 100.53 56.13 100.71 54.57 100.86 53.00 C 116.40 52.88 131.95 53.22 147.49 52.84 Z" />
<path fill="#9f9f9f" d=" M 19.33 36.46 C 22.22 35.06 25.09 33.64 27.97 32.22 C 30.88 33.62 33.78 35.05 36.68 36.49 C 36.75 37.62 36.82 38.76 36.89 39.90 C 33.93 38.40 30.96 36.90 27.98 35.43 C 25.03 36.90 22.11 38.41 19.18 39.92 C 19.23 38.77 19.28 37.61 19.33 36.46 Z" />
<path fill="#f06529" d=" M 76.29 34.05 C 79.31 33.78 82.33 33.65 85.36 33.48 C 85.02 36.38 84.72 39.29 84.42 42.19 C 81.85 42.89 79.30 43.66 76.68 44.15 L 76.15 44.06 C 76.27 40.73 76.32 37.39 76.29 34.05 Z" />
<path fill="#ebebeb" d=" M 61.11 36.22 C 63.54 36.24 65.98 36.25 68.42 36.26 C 68.62 38.24 68.82 40.21 69.04 42.19 C 71.40 42.83 73.75 43.55 76.15 44.06 L 76.68 44.15 C 76.84 46.68 77.11 49.20 77.51 51.70 C 77.22 51.72 76.64 51.77 76.35 51.79 C 71.55 50.62 66.84 49.11 62.06 47.87 C 61.79 43.98 61.43 40.10 61.11 36.22 Z" />
</svg>
